<?xml version="1.0" encoding="UTF-8"?>
<svg id="Layer_1" xmlns="http://www.w3.org/2000/svg" version="1.1" viewBox="0 0 1230 552.6">
  <!-- Generator: Adobe Illustrator 29.6.1, SVG Export Plug-In . SVG Version: 2.1.1 Build 9)  -->
  <defs>
    <style>
      .st0 {
        fill: #02cbd0;
      }
    </style>
  </defs>
  <path class="st0" d="M114.2,0h112.1v68.8h-101.2c-28.3,0-51.2,22.9-51.2,51.2v51.8h148.4v69.4H73.9v198.3H0V114.2C0,51.1,51.1,0,114.2,0Z"/>
  <path class="st0" d="M286.6.5h70.5v439h-70.5V.5Z"/>
  <path class="st0" d="M849,131.8c77.9,0,125.1,48.3,125.1,128.5v179.1h-70.5v-176.8c0-42.1-19.9-64.8-54.6-64.8s-54.6,22.7-54.6,64.8v176.8h-70.5v-179.1c0-80.2,46.6-128.5,125.1-128.5Z"/>
  <path class="st0" d="M1025.3,289.3c0-91.5,65.4-154.7,156.9-154.7s30.1,1.7,47.8,4v64.3c-15.9-2.3-29.6-3.4-39.8-3.4-59.1,0-94.4,37.5-94.4,89.8s35.3,89.3,94.4,89.3,23.9-1.1,39.8-2.8v64.3c-17.6,2.8-34.1,4-47.8,4-91.5,0-156.9-62.5-156.9-154.7Z"/>
  <path class="st0" d="M601.1,131.8v176.8c0,42.1-19.3,64.8-54.6,64.8s-54.6-22.7-54.6-64.8v-176.8h-70.5v179.1c0,67.2,33.2,112,89.8,124.8v116.9h70.5v-116.8c57-12.7,89.8-57.5,89.8-124.8v-179.1h-70.5Z"/>
</svg>