<?xml version="1.0" encoding="UTF-8"?>
<svg version="1.1" xmlns="http://www.w3.org/2000/svg" width="757" height="338">
<path d="M0 0 C14.52 0 29.04 0 44 0 C44.01458252 3.48143555 44.02916504 6.96287109 44.04418945 10.54980469 C44.09463382 22.08094566 44.16109846 33.6119638 44.23571491 45.14297104 C44.28054587 52.13094314 44.3199892 59.11886573 44.34643555 66.10693359 C44.37199595 72.85680513 44.41298529 79.60644566 44.46318626 86.35617828 C44.47980983 88.92519615 44.49135207 91.49425232 44.49761391 94.06331635 C44.50730389 97.67493164 44.53542269 101.2859855 44.56762695 104.89746094 C44.56619186 105.94835403 44.56475677 106.99924713 44.5632782 108.08198547 C44.70264972 119.2083667 46.64266939 131.52914563 54.75 139.78125 C62.19023746 145.90144533 70.57259103 147.55675192 80.0390625 147.2890625 C88.88910364 146.42507431 96.30383162 143.45522674 102.125 136.5625 C108.31121621 127.63846803 109.59589904 117.19611568 109.54589844 106.6003418 C109.56140495 104.85648193 109.56140495 104.85648193 109.57722473 103.07739258 C109.60641524 99.28452258 109.60814691 95.49219173 109.609375 91.69921875 C109.62437271 89.04976232 109.64091126 86.40035992 109.65948486 83.75093079 C109.69981195 77.52169715 109.72033023 71.29256756 109.73345876 65.06322366 C109.74940848 57.96260201 109.78785688 50.86215546 109.82805204 43.76163614 C109.91013157 29.17447369 109.96145397 14.58734442 110 0 C124.52 0 139.04 0 154 0 C154.0906624 16.13476972 154.164191 32.26931844 154.20724869 48.40427303 C154.22778186 55.89778265 154.25572293 63.39112154 154.30175781 70.88452148 C154.34191162 77.4237967 154.36749979 83.96294814 154.37635398 90.50234324 C154.38152107 93.95768587 154.39346619 97.41267473 154.42292023 100.86790276 C154.68887132 135.97587667 154.68887132 135.97587667 146.25 151.4375 C145.90493408 152.09306885 145.55986816 152.7486377 145.2043457 153.42407227 C136.8324537 168.85458104 124.31425443 178.90326516 108 185 C103.545 185.99 103.545 185.99 99 187 C99 210.43 99 233.86 99 258 C84.48 258 69.96 258 55 258 C54.67 234.57 54.34 211.14 54 187 C46.575 184.525 46.575 184.525 39 182 C21.20764883 172.78984175 9.23964821 157.92215755 3 139 C-1.01181003 125.40471497 -0.39506369 111.48169421 -0.30418181 97.43988347 C-0.28520417 94.00465413 -0.28364821 90.5694137 -0.28010559 87.13414001 C-0.27084618 80.6534433 -0.2463168 74.1729016 -0.21605712 67.6922726 C-0.1823209 60.30393739 -0.1659792 52.91559409 -0.15097082 45.52720082 C-0.11976038 30.35136714 -0.06482657 15.17573432 0 0 Z " fill="#92FFA1" transform="translate(259,80)"/>
<path d="M0 0 C0.80052292 -0.00014603 1.60104584 -0.00029205 2.42582703 -0.0004425 C5.0608495 0.00025184 7.69580049 0.00802183 10.33081055 0.01586914 C12.16212424 0.01773502 13.99343844 0.01915812 15.82475281 0.02015686 C20.63666165 0.02396867 25.44854014 0.03378754 30.26043701 0.04486084 C36.03826521 0.05690568 41.81610357 0.06148356 47.59394073 0.06731415 C56.36432467 0.07700001 65.13464207 0.09616593 73.9050293 0.11352539 C73.9050293 14.30352539 73.9050293 28.49352539 73.9050293 43.11352539 C68.91893555 43.11610352 63.9328418 43.11868164 58.7956543 43.12133789 C55.61457384 43.13630624 52.43369356 43.15303515 49.25268555 43.17602539 C44.21658551 43.21225789 39.18102443 43.24238243 34.14477539 43.23364258 C30.07890615 43.22699787 26.01412317 43.24982177 21.9484787 43.29207993 C20.40659203 43.30312065 18.86459397 43.30399391 17.3227005 43.29394913 C6.59809618 43.23310569 -2.43072554 44.59464101 -11.012146 51.70120239 C-24.36701121 65.72682348 -19.65016172 88.21078394 -20.0949707 105.11352539 C9.9350293 105.11352539 39.9650293 105.11352539 70.9050293 105.11352539 C70.9050293 119.30352539 70.9050293 133.49352539 70.9050293 148.11352539 C40.8750293 148.11352539 10.8450293 148.11352539 -20.0949707 148.11352539 C-20.0949707 188.04352539 -20.0949707 227.97352539 -20.0949707 269.11352539 C-35.2749707 269.11352539 -50.4549707 269.11352539 -66.0949707 269.11352539 C-66.20804162 241.8961386 -66.30006179 214.67894336 -66.35403156 187.46138096 C-66.37976191 174.82247544 -66.41481338 162.18372672 -66.47216797 149.54492188 C-66.5221614 138.52294124 -66.55429924 127.50107422 -66.56541318 116.47898334 C-66.57190496 110.64827108 -66.58705414 104.81788373 -66.62362099 98.98727608 C-66.65783261 93.48708453 -66.66797326 87.9873484 -66.66050911 82.48706055 C-66.66187249 80.48009189 -66.67165354 78.47310628 -66.69099808 76.46623039 C-66.88658266 55.10835126 -62.47002162 37.32778945 -47.3449707 21.35961914 C-34.35432545 8.39152709 -18.71156266 -0.08984328 0 0 Z " fill="#A4FF7E" transform="translate(66.094970703125,-0.113525390625)"/>
<path d="M0 0 C9.19373106 8.71251648 15.28625527 18.39566076 19.4609375 30.25 C19.69981689 30.90685791 19.93869629 31.56371582 20.18481445 32.24047852 C25.52444898 48.73478929 24.35619387 67.179056 24.28125 84.2578125 C24.27751112 86.78799324 24.27466829 89.31817544 24.27267456 91.84835815 C24.26587612 97.77642825 24.25019133 103.70442018 24.22997558 109.63245857 C24.2074284 116.39452614 24.19657641 123.15659782 24.18658471 129.91869378 C24.16581794 143.80001196 24.12921866 157.68123469 24.0859375 171.5625 C9.2359375 171.5625 -5.6140625 171.5625 -20.9140625 171.5625 C-20.9234082 168.02571533 -20.93275391 164.48893066 -20.94238281 160.8449707 C-20.97623267 149.12622617 -21.0316277 137.40763718 -21.09796524 125.68903828 C-21.13764331 118.58785474 -21.17009243 111.48678022 -21.18505859 104.38549805 C-21.19813381 98.19039713 -21.22524628 91.99553721 -21.26867557 85.8005721 C-21.29116003 82.52539323 -21.30488588 79.25057121 -21.30594635 75.97530556 C-21.30832944 72.30389476 -21.33551907 68.63340827 -21.36816406 64.9621582 C-21.3631337 63.89615891 -21.35810333 62.83015961 -21.35292053 61.7318573 C-21.4871762 51.89722879 -23.44020776 41.00885824 -29.97265625 33.28125 C-37.64573185 26.48818508 -46.8306255 24.02859961 -56.9140625 24.5625 C-66.32914329 25.95400181 -73.4183625 28.99769082 -79.52734375 36.4375 C-85.57052153 45.69803159 -86.06149899 56.19978137 -86.11938477 66.89208984 C-86.12928436 68.02438019 -86.13918396 69.15667053 -86.14938354 70.32327271 C-86.18090842 74.05663988 -86.20572039 77.79001977 -86.23046875 81.5234375 C-86.25104605 84.11561408 -86.27204273 86.70778735 -86.29344177 89.29995728 C-86.34294978 95.41961495 -86.38823579 101.53929045 -86.43146414 107.65899527 C-86.48093395 114.6288022 -86.53581578 121.59856326 -86.59114373 128.56832576 C-86.70478922 142.89967548 -86.81095154 157.23107071 -86.9140625 171.5625 C-101.4340625 171.5625 -115.9540625 171.5625 -130.9140625 171.5625 C-130.9820222 155.78434779 -131.03718466 140.00631329 -131.06949902 124.22805691 C-131.08490801 116.90043806 -131.10588195 109.57291723 -131.14038086 102.24536133 C-131.17046752 95.85186712 -131.18968075 89.45844396 -131.19632798 83.06488091 C-131.20020797 79.6856808 -131.20919851 76.30668378 -131.23125267 72.92754936 C-131.38320492 46.73809841 -129.19538746 23.00976381 -110.39453125 2.94921875 C-82.1982215 -24.18140371 -29.93501031 -25.03947243 0 0 Z " fill="#86FFB9" transform="translate(575.9140625,97.4375)"/>
<path d="M0 0 C0.99870117 -0.0093457 1.99740234 -0.01869141 3.02636719 -0.02832031 C12.16633635 0.00970196 20.4985999 1.16159999 29.75 2.25 C29.75 15.45 29.75 28.65 29.75 42.25 C25.439375 42.04375 21.12875 41.8375 16.6875 41.625 C-3.4467222 40.84250407 -21.47545535 42.27193235 -37.25 56.25 C-47.96764372 66.94932297 -52.15634889 81.07039898 -52.28125 95.98046875 C-51.7645205 108.65325975 -48.31303771 118.77186713 -41.25 129.25 C-40.38375 130.5803125 -40.38375 130.5803125 -39.5 131.9375 C-28.86233946 142.87065111 -14.35110725 148.05235676 0.65234375 148.3984375 C10.43119509 148.50636022 19.96398919 148.00277006 29.75 147.25 C29.75 160.78 29.75 174.31 29.75 188.25 C8.47112342 190.61431962 8.47112342 190.61431962 0.75 190.5625 C-0.62490601 190.55512817 -0.62490601 190.55512817 -2.02758789 190.54760742 C-28.51125616 190.10051926 -52.59817447 180.89841567 -71.97265625 162.69140625 C-90.63404796 143.28009772 -97.85094052 117.58560506 -97.4609375 91.10546875 C-96.64562916 65.95672954 -87.16096214 42.2086823 -68.87988281 24.72705078 C-49.74324243 7.38482875 -25.44823124 0.16043616 0 0 Z " fill="#7CFFCD" transform="translate(727.25,81.75)"/>
<path d="M0 0 C14.52 0 29.04 0 44 0 C44 88.77 44 177.54 44 269 C29.48 269 14.96 269 0 269 C0 180.23 0 91.46 0 0 Z " fill="#9BFF90" transform="translate(176,0)"/>
</svg>
