<svg width="453" height="202" viewBox="0 0 453 202" fill="none" xmlns="http://www.w3.org/2000/svg">
<mask id="mask0_69_190" style="mask-type:alpha" maskUnits="userSpaceOnUse" x="0" y="0" width="453" height="202">
<path d="M41.9726 0H83.1916V25.1486H45.9795C35.5911 25.1486 27.1693 33.5217 27.1693 43.8501V62.7636H81.7249V88.1168H27.173V160.602H0V41.7303C0 18.6833 18.7917 0 41.9726 0Z" fill="#FAFAFA"/>
<path d="M105.359 0.16748H131.279V160.602H105.359V0.16748Z" fill="#FAFAFA"/>
<path d="M312.091 48.1741C340.727 48.1741 358.077 65.8413 358.077 95.1417V160.603H332.158V95.9713C332.158 80.592 324.843 72.281 312.091 72.281C299.339 72.281 292.023 80.5957 292.023 95.9713V160.603H266.104V95.1417C266.104 65.8413 283.245 48.1741 312.087 48.1741H312.091Z" fill="#FAFAFA"/>
<path d="M376.896 105.737C376.896 72.2772 400.933 49.2083 434.587 49.2083C439.604 49.2083 445.666 49.8332 452.147 50.6629V74.1448C446.295 73.3152 441.277 72.8986 437.513 72.8986C415.777 72.8986 402.815 86.6113 402.815 105.733C402.815 124.855 415.777 138.359 437.513 138.359C441.273 138.359 446.291 137.943 452.147 137.321V160.803C445.666 161.841 439.604 162.254 434.587 162.254C400.933 162.254 376.896 139.397 376.896 105.729V105.737Z" fill="#FAFAFA"/>
<path d="M220.951 48.1741V112.805C220.951 128.185 213.845 136.496 200.884 136.496C187.922 136.496 180.816 128.181 180.816 112.805V48.1741H154.897V113.635C154.897 138.202 167.101 154.587 187.922 159.239V201.96H213.841V159.258C234.784 154.627 246.867 138.235 246.867 113.639V48.1777H220.947L220.951 48.1741Z" fill="#FAFAFA"/>
</mask>
<g mask="url(#mask0_69_190)">
<rect width="452.147" height="201.654" fill="url(#paint0_linear_69_190)"/>
</g>
<defs>
<linearGradient id="paint0_linear_69_190" x1="452" y1="114.5" x2="2.1809e-05" y2="101" gradientUnits="userSpaceOnUse">
<stop stop-color="#30ACB9"/>
<stop offset="1" stop-color="#4DC013"/>
</linearGradient>
</defs>
</svg>
