<?xml version="1.0" encoding="UTF-8"?>
<svg version="1.1" xmlns="http://www.w3.org/2000/svg" width="905" height="404">
<path d="M0 0 C17.49 0 34.98 0 53 0 C53.01458252 4.10711426 53.02916504 8.21422852 53.04418945 12.44580078 C53.09463109 26.0484528 53.16109521 39.65098751 53.23571491 53.25352669 C53.28054819 61.49696697 53.31999107 69.74036524 53.34643555 77.98388672 C53.36951718 85.17474259 53.40302716 92.36546414 53.44870156 99.55621326 C53.47249777 103.35840923 53.49131508 107.1604733 53.49761391 110.96274185 C53.50372711 114.55301313 53.52394674 118.14294752 53.55427551 121.73309326 C53.56704782 123.65550801 53.56550299 125.57800187 53.5632782 127.50045776 C53.70727919 141.0573702 55.81193172 156.14592466 65.30859375 166.625 C74.31239919 173.94449079 85.16325649 176.39699882 96.5 175.875 C107.24396313 174.74204654 115.94207208 171.44479702 123 163 C130.156815 151.71189051 131.29706036 141.00879183 131.31884766 127.94311523 C131.32816192 126.54278494 131.33833279 125.14246013 131.34928894 123.74214172 C131.37643434 119.96594715 131.3916921 116.18978956 131.40471697 112.41352344 C131.42041567 108.45769209 131.44718418 104.50193551 131.4727478 100.54615784 C131.51941683 93.06663355 131.55621817 85.58709501 131.58942068 78.10750014 C131.6277263 69.58745553 131.67711418 61.06748624 131.72740483 52.54750526 C131.83054794 35.03171902 131.91840264 17.51590078 132 0 C149.49 0 166.98 0 185 0 C185.06794628 18.61205301 185.12311451 37.22400425 185.15543652 55.83615017 C185.17084882 64.4797608 185.19182932 73.1232884 185.22631836 81.7668457 C185.25639463 89.30813679 185.27561586 96.84936769 185.28226548 104.39071709 C185.28614716 108.37694735 185.29514916 112.36300557 185.31719017 116.34918022 C185.4908494 149.05830796 182.68976285 178.29289368 158.91796875 203.1796875 C148.23406728 213.36804623 133.48393587 220.58601069 119 223 C119 251.05 119 279.1 119 308 C101.51 308 84.02 308 66 308 C65.67 279.95 65.34 251.9 65 223 C57.575 220.525 57.575 220.525 50 218 C29.56715636 209.25097752 15.45156726 193.4078982 7 173 C-0.98266824 152.18092916 -0.28808277 130.25271628 -0.20278788 108.30869436 C-0.19012025 104.48909837 -0.18909759 100.66949779 -0.18673706 96.84988403 C-0.18056867 89.646846 -0.16422206 82.44387007 -0.14403808 75.24085915 C-0.12153285 67.02778937 -0.11064922 58.81471633 -0.10064721 50.6016233 C-0.0798506 33.73437364 -0.04323391 16.86720934 0 0 Z " fill="#40B75D" transform="translate(309,96)"/>
<path d="M0 0 C2.12947045 0.00747905 4.25894788 0.01316409 6.38842773 0.01715088 C11.93851401 0.03227632 17.48816807 0.0714423 23.03808594 0.1159668 C29.7263496 0.16448121 36.41475941 0.18251595 43.10314941 0.20578003 C53.21489835 0.24430351 63.32570273 0.32104841 73.4375 0.390625 C73.4375 17.220625 73.4375 34.050625 73.4375 51.390625 C64.74986328 51.42929688 64.74986328 51.42929688 55.88671875 51.46875 C52.19982661 51.49394047 48.51301471 51.52029028 44.82617188 51.55078125 C38.98461691 51.59898283 33.1432479 51.64307747 27.30151367 51.66162109 C22.58746455 51.67685509 17.87390457 51.71141914 13.16007423 51.75893402 C11.36895837 51.77367863 9.57777265 51.78166201 7.7865963 51.78250885 C-5.59846429 51.79519218 -17.33995204 52.70728837 -27.5625 62.390625 C-43.56011084 79.27905408 -38.07688556 104.02358944 -38.5625 125.390625 C-2.5925 125.390625 33.3775 125.390625 70.4375 125.390625 C70.4375 142.550625 70.4375 159.710625 70.4375 177.390625 C34.4675 177.390625 -1.5025 177.390625 -38.5625 177.390625 C-38.5625 225.240625 -38.5625 273.090625 -38.5625 322.390625 C-56.7125 322.390625 -74.8625 322.390625 -93.5625 322.390625 C-93.65081459 290.68704523 -93.72461994 258.98358495 -93.76676132 227.27992043 C-93.77176366 223.53020064 -93.776941 219.78048112 -93.78222656 216.03076172 C-93.7832758 215.28431438 -93.78432505 214.53786704 -93.78540608 213.76880008 C-93.80277331 201.7097967 -93.8342905 189.65087021 -93.87111118 177.59191233 C-93.90862346 165.20238391 -93.9307575 152.81289554 -93.93885398 140.42331266 C-93.94432053 132.78889124 -93.96153516 125.15468725 -93.99416587 117.52033281 C-94.01796952 111.64923865 -94.02029406 105.77825382 -94.01493073 99.90711021 C-94.01602481 97.51110693 -94.02389591 95.11509488 -94.0393219 92.71914101 C-94.13729944 76.70639826 -93.62723314 61.51295712 -85.8125 47.078125 C-85.46815918 46.41989746 -85.12381836 45.76166992 -84.76904297 45.08349609 C-73.95726402 24.93002547 -57.0316415 10.48757429 -35.30639648 3.31573486 C-23.48657362 -0.01155115 -12.21639622 -0.12759701 0 0 Z " fill="#4BBE1D" transform="translate(93.5625,-0.390625)"/>
<path d="M0 0 C19.36560747 18.41686013 25.97693703 43.99304851 26.81991196 69.93125153 C26.98591781 78.59842788 26.97160568 87.26574705 26.94665694 95.93403482 C26.93774677 99.69176954 26.93963617 103.44950174 26.9400177 107.20724487 C26.9390886 113.49218872 26.93049676 119.77708351 26.91674805 126.06201172 C26.90090688 133.33043702 26.89575456 140.59880925 26.8964836 147.86725056 C26.89715731 155.63368785 26.89024071 163.40010472 26.881037 171.16653585 C26.8789049 173.39985449 26.8781958 175.63316985 26.87779808 177.86648941 C26.87661249 182.00493146 26.86692507 186.14330997 26.85620117 190.28173828 C26.85665436 191.51999359 26.85710754 192.7582489 26.85757446 194.0340271 C26.85330948 195.15226868 26.84904449 196.27051025 26.84465027 197.42263794 C26.84297442 198.39994936 26.84129858 199.37726078 26.83957195 200.3841877 C26.7109375 202.578125 26.7109375 202.578125 25.7109375 203.578125 C24.08418972 203.67152934 22.45339699 203.69557671 20.82397461 203.69165039 C19.78297104 203.69157486 18.74196747 203.69149933 17.66941833 203.69142151 C16.5371431 203.68626022 15.40486786 203.68109894 14.23828125 203.67578125 C12.50911217 203.67365883 12.50911217 203.67365883 10.74501038 203.67149353 C7.04612686 203.66587505 3.34730286 203.65331942 -0.3515625 203.640625 C-2.85221267 203.63561238 -5.35286379 203.63104906 -7.85351562 203.62695312 C-13.99871838 203.61589962 -20.14388619 203.59914352 -26.2890625 203.578125 C-26.29145085 202.87981504 -26.29383921 202.18150509 -26.29629993 201.46203423 C-26.35561479 184.41612137 -26.43126917 167.37035791 -26.52477741 150.32459831 C-26.56961069 142.08115803 -26.60905357 133.83775976 -26.63549805 125.59423828 C-26.65857968 118.40338241 -26.69208966 111.21266086 -26.73776406 104.02191174 C-26.76156027 100.21971577 -26.78037758 96.4176517 -26.78667641 92.61538315 C-26.79278961 89.02511187 -26.81300924 85.43517748 -26.84333801 81.84503174 C-26.85611032 79.92261699 -26.85456549 78.00012313 -26.8523407 76.07766724 C-26.99653696 62.50237063 -29.08770031 48.14232562 -38.10546875 37.41796875 C-46.8553381 29.09233549 -57.84405982 27.19067214 -69.515625 27.30078125 C-78.68829256 27.97496282 -87.84743296 30.75324061 -94.2890625 37.578125 C-105.04364715 51.391123 -105.4138022 68.21633531 -105.49438477 84.9440918 C-105.50428436 86.2331694 -105.51418396 87.52224701 -105.52438354 88.85038757 C-105.5511534 92.34960553 -105.572312 95.8488366 -105.59238553 99.34809852 C-105.61441972 103.01828819 -105.6417222 106.68843879 -105.66844177 110.3585968 C-105.7181351 117.29265537 -105.76315947 124.2267359 -105.80646414 131.16083699 C-105.85603762 139.06181401 -105.91088043 146.96275179 -105.96614373 154.86369073 C-106.07960465 171.10180045 -106.1858249 187.33994658 -106.2890625 203.578125 C-123.4490625 203.578125 -140.6090625 203.578125 -158.2890625 203.578125 C-158.35700649 184.83568821 -158.4121757 166.09335245 -158.44449902 147.3508234 C-158.45991188 138.64667894 -158.4808935 129.94261691 -158.51538086 121.23852539 C-158.54545536 113.6444966 -158.56467795 106.05052757 -158.57132798 98.45644087 C-158.57520996 94.44226546 -158.58421389 90.42826089 -158.60625267 86.4141407 C-158.76997603 55.3597907 -156.84149079 25.47784316 -133.9296875 2.19140625 C-133.05828125 1.32902344 -132.186875 0.46664062 -131.2890625 -0.421875 C-130.64453125 -1.08832031 -130 -1.75476563 -129.3359375 -2.44140625 C-96.48326215 -34.07996099 -32.26134593 -28.28159985 0 0 Z " fill="#39B285" transform="translate(690.2890625,118.421875)"/>
<path d="M0 0 C0 15.84 0 31.68 0 48 C-7.26 47.34 -14.52 46.68 -22 46 C-37.48864246 45.3804543 -52.02725287 46.9226317 -66 54 C-66.85980469 54.43054688 -67.71960938 54.86109375 -68.60546875 55.3046875 C-82.80278535 63.09670312 -91.50005657 75.70451919 -96 91 C-100.63389509 108.14014604 -98.79351731 127.10538892 -90.8125 142.9375 C-81.41315231 158.9563883 -67.68142629 168.06163555 -49.9375 172.8125 C-33.80559559 175.99217381 -16.17275892 174.07818393 0 173 C0 188.84 0 204.68 0 221 C-35.9678273 227.53960496 -74.31065516 225.29711386 -105.50854492 204.53271484 C-129.38681723 187.80152109 -145.14882804 162.33538602 -150.25 133.6875 C-150.5204324 131.79447323 -150.77132627 129.89852373 -151 128 C-151.11085938 127.10023438 -151.22171875 126.20046875 -151.3359375 125.2734375 C-154.71309677 93.60116006 -147.32636802 61.77554562 -127.359375 36.640625 C-108.6012902 14.00155714 -81.3852404 0.55139361 -52.29296875 -2.72265625 C-35.24266071 -4.01892694 -16.68558782 -4.17139695 0 0 Z " fill="#32ADAA" transform="translate(905,101)"/>
<path d="M0 0 C17.49 0 34.98 0 53 0 C53 106.26 53 212.52 53 322 C35.51 322 18.02 322 0 322 C0 215.74 0 109.48 0 0 Z " fill="#45BA3E" transform="translate(210,0)"/>
</svg>
